<svg width="29" height="31" viewBox="0 0 29 31" fill="none" xmlns="http://www.w3.org/2000/svg">
<path d="M28.8962 27.7256L28.904 27.7205L26.4336 22.7853H27.4058V22.7802C27.6086 22.7802 27.7731 22.5909 27.7731 22.357C27.7731 22.2846 27.7531 22.2197 27.7256 22.1602L27.732 22.1559L25.4476 17.5916H26.0033V17.588C26.0728 17.588 26.1394 17.5562 26.1886 17.4996C26.2377 17.443 26.2654 17.3662 26.2655 17.2861C26.2645 17.2367 26.2528 17.1885 26.2315 17.1456L26.236 17.1425L22.9121 10.5011L22.9087 10.5034C22.8725 10.4156 22.8156 10.3414 22.7445 10.2892C22.6733 10.237 22.5909 10.2091 22.5066 10.2085C22.3289 10.2085 22.1783 10.3301 22.1048 10.5026L22.1031 10.5015L18.7792 17.1425C18.7569 17.1859 18.7453 17.2356 18.7443 17.2861C18.7443 17.4527 18.8616 17.588 19.0064 17.588V17.5916H19.5697L17.2852 22.1559C17.254 22.2168 17.2379 22.2863 17.2364 22.357C17.2364 22.5909 17.4008 22.7802 17.6036 22.7802V22.7853H18.5849L17.8728 24.2083L15.0248 18.5178H16.3968V18.5108C16.683 18.5108 16.9149 18.2428 16.9149 17.9131C16.9149 17.8114 16.8908 17.7167 16.8518 17.6326L16.8569 17.6291L13.6331 11.1879H14.4175V11.1833C14.4661 11.1833 14.5142 11.1723 14.5592 11.1508C14.6041 11.1294 14.6449 11.0979 14.6793 11.0582C14.7136 11.0186 14.7409 10.9714 14.7594 10.9196C14.778 10.8678 14.7875 10.8122 14.7874 10.7561C14.7874 10.6834 14.7674 10.618 14.7396 10.5582L14.746 10.5539L10.055 1.18298L10.0533 1.18416C10.0015 1.0602 9.92054 0.955568 9.8196 0.88224C9.71867 0.808911 9.60188 0.769851 9.4826 0.769531C9.22557 0.769531 9.00516 0.946334 8.90478 1.1998L4.22289 10.5539L4.22391 10.5547C4.19245 10.6159 4.17516 10.6854 4.17372 10.7565C4.17363 10.8126 4.18313 10.8681 4.20166 10.9199C4.2202 10.9717 4.24741 11.0188 4.28174 11.0585C4.31607 11.0982 4.35685 11.1296 4.40174 11.1511C4.44662 11.1726 4.49474 11.1836 4.54334 11.1836V11.1883H5.33852L2.15271 17.5532C2.0837 17.6563 2.04604 17.7828 2.04556 17.9131C2.04556 18.2432 2.27784 18.5108 2.5637 18.5108V18.5178H3.94856L0.510136 25.3884C0.428753 25.5113 0.378906 25.663 0.378906 25.8297C0.378906 26.2333 0.663068 26.5611 1.01335 26.5611V26.5693H7.72032V29.8668C7.72032 30.1856 7.94446 30.4445 8.22083 30.4445H10.7244C11.0007 30.4445 11.2252 30.186 11.2252 29.8668V26.5693H16.6914L16.1153 27.7205L16.1163 27.7213C16.0811 27.7952 16.0553 27.8762 16.0553 27.9669C16.0553 28.2533 16.2564 28.4852 16.5046 28.4852V28.4911H21.2574V30.0326C21.2574 30.2587 21.4164 30.4418 21.612 30.4418H23.3862C23.5822 30.4418 23.7409 30.2587 23.7409 30.0326V28.4911H28.5052V28.4852C28.7534 28.4852 28.9548 28.2533 28.9548 27.9669C28.9531 27.8821 28.9329 27.7991 28.8962 27.7256Z" fill="#37863A"/>
</svg>
