<svg width="29" height="23" viewBox="0 0 29 23" fill="none" xmlns="http://www.w3.org/2000/svg">
<path d="M28.5826 14.2527V14.2401C28.5804 14.2307 28.5775 14.2215 28.5738 14.2126C28.4906 13.9858 28.394 13.7641 28.2847 13.5487L23.0819 1.71482C23.0318 1.60083 22.961 1.49719 22.8729 1.4092C22.501 1.03691 22.0595 0.741597 21.5735 0.540113C21.0875 0.33863 20.5667 0.234927 20.0406 0.234927C19.5146 0.234927 18.9937 0.33863 18.5078 0.540113C18.0218 0.741597 17.5802 1.03691 17.2083 1.4092C17.0212 1.59666 16.9159 1.85066 16.9155 2.11563V5.24696H12.9105V2.11563C12.9106 1.984 12.8847 1.85364 12.8345 1.732C12.7842 1.61036 12.7105 1.49982 12.6176 1.40669C12.2457 1.03441 11.8041 0.739092 11.3182 0.537608C10.8322 0.336125 10.3113 0.232422 9.7853 0.232422C9.25927 0.232422 8.7384 0.336125 8.25243 0.537608C7.76646 0.739092 7.32491 1.03441 6.953 1.40669C6.86496 1.49468 6.79408 1.59833 6.74399 1.71231L1.54624 13.5487C1.43689 13.7641 1.34035 13.9858 1.25712 14.2126C1.25372 14.2212 1.2508 14.23 1.24836 14.2389C1.24836 14.2389 1.24836 14.2489 1.24836 14.2527C0.731452 15.7474 0.823932 17.3857 1.50576 18.8127C2.18759 20.2396 3.40384 21.3402 4.89092 21.8759C6.378 22.4116 8.01611 22.3392 9.45023 21.6745C10.8844 21.0097 11.999 19.8062 12.5525 18.3247C12.7962 17.6592 12.9191 16.9555 12.9155 16.2467V7.25101H16.9205V16.248C16.9168 16.9567 17.0397 17.6604 17.2834 18.3259C17.837 19.8074 18.9516 21.011 20.3857 21.6757C21.8198 22.3404 23.4579 22.4128 24.945 21.8771C26.4321 21.3415 27.6483 20.2409 28.3302 18.8139C29.012 17.387 29.1045 15.7486 28.5876 14.2539L28.5826 14.2527ZM10.6664 17.6345C10.2967 18.6218 9.55309 19.4236 8.5968 19.866C7.6405 20.3085 6.54851 20.356 5.55743 19.9983C4.56636 19.6406 3.75603 18.9065 3.30203 17.9551C2.84804 17.0036 2.78693 15.9115 3.13197 14.9153L3.3585 14.398C3.77487 13.6059 4.44413 12.9761 5.25966 12.6089C6.0752 12.2417 6.99007 12.1582 7.85852 12.3717C8.72697 12.5853 9.49903 13.0835 10.0517 13.7872C10.6043 14.4908 10.9058 15.3593 10.908 16.2542V16.2693C10.9079 16.7366 10.8261 17.2004 10.6664 17.6395V17.6345ZM24.2997 20.0356C23.6943 20.2574 23.0444 20.3296 22.4051 20.2462C21.7658 20.1628 21.1561 19.9261 20.6278 19.5564C20.0995 19.1867 19.6682 18.6948 19.3705 18.1225C19.0728 17.5502 18.9176 16.9144 18.918 16.2693V16.2555C18.9213 15.3609 19.2235 14.4932 19.7766 13.7904C20.3296 13.0877 21.1017 12.5903 21.9698 12.3774C22.838 12.1645 23.7524 12.2484 24.5674 12.6157C25.3824 12.983 26.0513 13.6126 26.4674 14.4042L26.694 14.9215C27.0501 15.9176 26.9982 17.0143 26.5497 17.9723C26.1012 18.9303 25.2924 19.672 24.2997 20.0356Z" fill="#FF8946"/>
</svg>
