<svg width="29" height="27" viewBox="0 0 29 27" fill="none" xmlns="http://www.w3.org/2000/svg">
<path d="M16.874 5.02808C16.874 4.07959 17.1552 3.1524 17.6822 2.36375C18.2092 1.57511 18.9581 0.960443 19.8344 0.597471C20.7107 0.2345 21.675 0.13953 22.6052 0.324571C23.5355 0.509612 24.39 0.966354 25.0607 1.63704C25.7314 2.30772 26.1881 3.16223 26.3731 4.09249C26.5582 5.02276 26.4632 5.987 26.1002 6.86329C25.7373 7.73958 25.1226 8.48856 24.334 9.01551C23.5453 9.54247 22.6181 9.82373 21.6696 9.82373C20.3978 9.82373 19.178 9.31847 18.2786 8.41911C17.3792 7.51975 16.874 6.29996 16.874 5.02808ZM26.8984 21.8413C22.1282 25.7962 18.8477 24.0159 15.0486 21.9522C11.0608 19.7882 6.54236 17.3349 0.522316 22.3254C0.399793 22.4255 0.2983 22.5489 0.223689 22.6884C0.149078 22.828 0.102825 22.9809 0.0875967 23.1384C0.0723685 23.2959 0.0884662 23.4548 0.134962 23.6061C0.181457 23.7573 0.257432 23.8979 0.358503 24.0196C0.459575 24.1413 0.583744 24.2419 0.723853 24.3154C0.863963 24.3889 1.01724 24.434 1.17485 24.448C1.33246 24.462 1.49128 24.4446 1.64215 24.397C1.79303 24.3493 1.93298 24.2722 2.05393 24.1702C6.8241 20.2153 10.1046 21.9972 13.9037 24.0593C16.1681 25.2882 18.6019 26.607 21.3864 26.607C23.5055 26.607 25.8284 25.8412 28.43 23.6847C28.6748 23.4816 28.829 23.1895 28.8585 22.8728C28.888 22.556 28.7905 22.2405 28.5874 21.9957C28.3843 21.7509 28.0922 21.5967 27.7755 21.5672C27.4587 21.5377 27.1432 21.6352 26.8984 21.8383V21.8413ZM0.522316 16.3323C0.399793 16.4324 0.2983 16.5558 0.223689 16.6954C0.149078 16.8349 0.102825 16.9878 0.0875967 17.1453C0.0723685 17.3028 0.0884662 17.4618 0.134962 17.613C0.181457 17.7642 0.257432 17.9048 0.358503 18.0265C0.459575 18.1483 0.583744 18.2488 0.723853 18.3223C0.863963 18.3958 1.01724 18.4409 1.17485 18.4549C1.33246 18.4689 1.49128 18.4516 1.64215 18.4039C1.79303 18.3562 1.93298 18.2792 2.05393 18.1772C6.8241 14.2237 10.1046 16.0041 13.9037 18.0663C16.1681 19.2951 18.6019 20.6139 21.3864 20.6139C23.5055 20.6139 25.8284 19.8481 28.43 17.6916C28.5525 17.5915 28.654 17.4681 28.7286 17.3286C28.8032 17.189 28.8495 17.0361 28.8647 16.8786C28.88 16.7211 28.8639 16.5622 28.8174 16.4109C28.7709 16.2597 28.6949 16.1191 28.5938 15.9974C28.4928 15.8757 28.3686 15.7751 28.2285 15.7016C28.0884 15.6281 27.9351 15.583 27.7775 15.569C27.6199 15.555 27.461 15.5723 27.3102 15.62C27.1593 15.6677 27.0193 15.7448 26.8984 15.8468C26.0316 16.5911 25.0576 17.2004 24.009 17.6541L15.9403 9.58844C14.4961 8.13776 12.7786 6.98779 10.8871 6.20502C8.9957 5.42226 6.96784 5.02223 4.92083 5.02808H1.28812C0.97015 5.02808 0.665203 5.15439 0.440363 5.37923C0.215523 5.60407 0.0892092 5.90902 0.0892092 6.22699C0.0892092 6.54496 0.215523 6.84991 0.440363 7.07475C0.665203 7.29959 0.97015 7.4259 1.28812 7.4259H4.92083C7.11218 7.4217 9.26977 7.96574 11.1971 9.00847L6.75666 13.4459C4.85788 13.6243 2.79725 14.4455 0.522316 16.3308V16.3323Z" fill="#34A2A2" fill-opacity="0.79"/>
</svg>
